<svg width="139" height="139" viewBox="0 0 139 139" fill="none" xmlns="http://www.w3.org/2000/svg">
<g opacity="0.8">
<circle cx="69.4487" cy="69.4487" r="68.4487" fill="#111111" stroke="white" stroke-width="2"/>
<path d="M103.809 115.895L125.69 94.0137C126.334 93.37 126.695 92.4969 126.695 91.5866V61.5395C126.695 56.7995 122.853 52.957 118.113 52.957C113.373 52.957 109.531 56.7995 109.531 61.5395V87.2868" fill="#111111"/>
<path d="M103.809 115.895L125.69 94.0137C126.334 93.37 126.695 92.4969 126.695 91.5866V61.5395C126.695 56.7995 122.853 52.957 118.113 52.957C113.373 52.957 109.531 56.7995 109.531 61.5395V87.2868" stroke="white" stroke-width="5" stroke-linecap="round" stroke-linejoin="round"/>
<path d="M103.809 93.0086L108.719 88.0989C109.239 87.5788 109.53 86.8739 109.53 86.1392C109.53 85.0893 108.937 84.1298 107.998 83.6601L105.464 82.3933C101.059 80.1905 95.7379 81.0539 92.2551 84.5366L87.1349 89.6569C84.9887 91.8031 83.7831 94.7137 83.7831 97.7484V115.895" fill="#111111"/>
<path d="M103.809 93.0086L108.719 88.0989C109.239 87.5788 109.53 86.8739 109.53 86.1392C109.53 85.0893 108.937 84.1298 107.998 83.6601L105.464 82.3933C101.059 80.1905 95.7379 81.0539 92.2551 84.5366L87.1348 89.6569C84.9887 91.8031 83.7831 94.7137 83.7831 97.7484V115.895" stroke="white" stroke-width="5" stroke-linecap="round" stroke-linejoin="round"/>
<path d="M35.1493 115.895L13.2683 94.0137C12.6245 93.37 12.2628 92.4969 12.2628 91.5866V61.5395C12.2628 56.7995 16.1053 52.957 20.8453 52.957C25.5852 52.957 29.4277 56.7995 29.4277 61.5395V87.2868" fill="#111111"/>
<path d="M35.1493 115.895L13.2683 94.0137C12.6245 93.37 12.2628 92.4969 12.2628 91.5866V61.5395C12.2628 56.7995 16.1053 52.957 20.8453 52.957C25.5852 52.957 29.4277 56.7995 29.4277 61.5395V87.2868" stroke="white" stroke-width="5" stroke-linecap="round" stroke-linejoin="round"/>
<path d="M35.1493 93.0086L30.2394 88.0989C29.7196 87.5788 29.4277 86.8739 29.4277 86.1392C29.4277 85.0893 30.0208 84.1298 30.9597 83.6601L33.4939 82.3933C37.8993 80.1905 43.2202 81.0539 46.703 84.5366L51.8233 89.6569C53.9694 91.8031 55.175 94.7137 55.175 97.7484V115.895" fill="#111111"/>
<path d="M35.1493 93.0086L30.2394 88.0989C29.7196 87.5788 29.4277 86.8739 29.4277 86.1392C29.4277 85.0893 30.0208 84.1298 30.9597 83.6601L33.4939 82.3933C37.8993 80.1905 43.2202 81.0539 46.703 84.5366L51.8233 89.6569C53.9694 91.8031 55.175 94.7137 55.175 97.7484V115.895" stroke="white" stroke-width="5" stroke-linecap="round" stroke-linejoin="round"/>
<path d="M79.0154 70.1221H59.9429V56.7717H46.5926V37.6996H59.9429V24.3491H79.0154V37.6996H92.3656V56.7717H79.0154V70.1221Z" fill="#111111" stroke="white" stroke-width="5" stroke-linecap="round" stroke-linejoin="round"/>
</g>
</svg>
