<svg id="visual" viewBox="0 0 900 25" width="900" height="25" xmlns="http://www.w3.org/2000/svg" xmlns:xlink="http://www.w3.org/1999/xlink" version="1.1"><path d="M0 20L4.8 19.2C9.7 18.3 19.3 16.7 29 14.7C38.7 12.7 48.3 10.3 58 10.3C67.7 10.3 77.3 12.7 87 12.8C96.7 13 106.3 11 116 11.5C125.7 12 135.3 15 145 15.3C154.7 15.7 164.3 13.3 174 13.2C183.7 13 193.3 15 203 13.8C212.7 12.7 222.3 8.3 232 5.7C241.7 3 251.3 2 261 3.7C270.7 5.3 280.3 9.7 290 10C299.7 10.3 309.3 6.7 319 6.3C328.7 6 338.3 9 348 12C357.7 15 367.3 18 377 17.5C386.7 17 396.3 13 406 10.5C415.7 8 425.3 7 435.2 5.7C445 4.3 455 2.7 464.8 1.8C474.7 1 484.3 1 494 3.7C503.7 6.3 513.3 11.7 523 13.5C532.7 15.3 542.3 13.7 552 13.2C561.7 12.7 571.3 13.3 581 12.2C590.7 11 600.3 8 610 6.8C619.7 5.7 629.3 6.3 639 7.2C648.7 8 658.3 9 668 8.8C677.7 8.7 687.3 7.3 697 9.3C706.7 11.3 716.3 16.7 726 18C735.7 19.3 745.3 16.7 755 14.2C764.7 11.7 774.3 9.3 784 9.3C793.7 9.3 803.3 11.7 813 13C822.7 14.3 832.3 14.7 842 14.3C851.7 14 861.3 13 871 10.8C880.7 8.7 890.3 5.3 895.2 3.7L900 2L900 26L895.2 26C890.3 26 880.7 26 871 26C861.3 26 851.7 26 842 26C832.3 26 822.7 26 813 26C803.3 26 793.7 26 784 26C774.3 26 764.7 26 755 26C745.3 26 735.7 26 726 26C716.3 26 706.7 26 697 26C687.3 26 677.7 26 668 26C658.3 26 648.7 26 639 26C629.3 26 619.7 26 610 26C600.3 26 590.7 26 581 26C571.3 26 561.7 26 552 26C542.3 26 532.7 26 523 26C513.3 26 503.7 26 494 26C484.3 26 474.7 26 464.8 26C455 26 445 26 435.2 26C425.3 26 415.7 26 406 26C396.3 26 386.7 26 377 26C367.3 26 357.7 26 348 26C338.3 26 328.7 26 319 26C309.3 26 299.7 26 290 26C280.3 26 270.7 26 261 26C251.3 26 241.7 26 232 26C222.3 26 212.7 26 203 26C193.3 26 183.7 26 174 26C164.3 26 154.7 26 145 26C135.3 26 125.7 26 116 26C106.3 26 96.7 26 87 26C77.3 26 67.7 26 58 26C48.3 26 38.7 26 29 26C19.3 26 9.7 26 4.8 26L0 26Z" fill="#9fb5b6" stroke-linecap="round" stroke-linejoin="miter"></path></svg>