<svg id="visual" viewBox="0 0 900 25" width="900" height="25" xmlns="http://www.w3.org/2000/svg" xmlns:xlink="http://www.w3.org/1999/xlink" version="1.1"><path d="M0 8L4.8 9.3C9.7 10.7 19.3 13.3 29 14.5C38.7 15.7 48.3 15.3 58 14.3C67.7 13.3 77.3 11.7 87 11.3C96.7 11 106.3 12 116 11.8C125.7 11.7 135.3 10.3 145 10.7C154.7 11 164.3 13 174 12.5C183.7 12 193.3 9 203 7.3C212.7 5.7 222.3 5.3 232 5.2C241.7 5 251.3 5 261 6.2C270.7 7.3 280.3 9.7 290 11.3C299.7 13 309.3 14 319 14.8C328.7 15.7 338.3 16.3 348 16.3C357.7 16.3 367.3 15.7 377 14.2C386.7 12.7 396.3 10.3 406 10.3C415.7 10.3 425.3 12.7 435.2 13.2C445 13.7 455 12.3 464.8 12.8C474.7 13.3 484.3 15.7 494 16.5C503.7 17.3 513.3 16.7 523 14.8C532.7 13 542.3 10 552 9C561.7 8 571.3 9 581 10C590.7 11 600.3 12 610 11.5C619.7 11 629.3 9 639 8.2C648.7 7.3 658.3 7.7 668 8.3C677.7 9 687.3 10 697 11.3C706.7 12.7 716.3 14.3 726 15.3C735.7 16.3 745.3 16.7 755 15.3C764.7 14 774.3 11 784 11C793.7 11 803.3 14 813 14C822.7 14 832.3 11 842 10.2C851.7 9.3 861.3 10.7 871 10.7C880.7 10.7 890.3 9.3 895.2 8.7L900 8L900 0L895.2 0C890.3 0 880.7 0 871 0C861.3 0 851.7 0 842 0C832.3 0 822.7 0 813 0C803.3 0 793.7 0 784 0C774.3 0 764.7 0 755 0C745.3 0 735.7 0 726 0C716.3 0 706.7 0 697 0C687.3 0 677.7 0 668 0C658.3 0 648.7 0 639 0C629.3 0 619.7 0 610 0C600.3 0 590.7 0 581 0C571.3 0 561.7 0 552 0C542.3 0 532.7 0 523 0C513.3 0 503.7 0 494 0C484.3 0 474.7 0 464.8 0C455 0 445 0 435.2 0C425.3 0 415.7 0 406 0C396.3 0 386.7 0 377 0C367.3 0 357.7 0 348 0C338.3 0 328.7 0 319 0C309.3 0 299.7 0 290 0C280.3 0 270.7 0 261 0C251.3 0 241.7 0 232 0C222.3 0 212.7 0 203 0C193.3 0 183.7 0 174 0C164.3 0 154.7 0 145 0C135.3 0 125.7 0 116 0C106.3 0 96.7 0 87 0C77.3 0 67.7 0 58 0C48.3 0 38.7 0 29 0C19.3 0 9.7 0 4.8 0L0 0Z" fill="#9fb5b6" stroke-linecap="round" stroke-linejoin="miter"></path></svg>